<svg width="46" height="1" viewBox="0 0 46 1" fill="none" xmlns="http://www.w3.org/2000/svg">
<g opacity="0.24">
<line x1="0.25" y1="0.5" x2="1.25" y2="0.5" stroke="black"/>
<line x1="2.25" y1="0.5" x2="3.25" y2="0.5" stroke="black"/>
<line x1="4.25" y1="0.5" x2="5.25" y2="0.5" stroke="black"/>
<line x1="6.25" y1="0.5" x2="7.25" y2="0.5" stroke="black"/>
<line x1="8.25" y1="0.5" x2="9.25" y2="0.5" stroke="black"/>
<line x1="10.25" y1="0.5" x2="11.25" y2="0.5" stroke="black"/>
<line x1="12.25" y1="0.5" x2="13.25" y2="0.5" stroke="black"/>
<line x1="14.25" y1="0.5" x2="15.25" y2="0.5" stroke="black"/>
<line x1="16.25" y1="0.5" x2="17.25" y2="0.5" stroke="black"/>
<line x1="18.25" y1="0.5" x2="19.25" y2="0.5" stroke="black"/>
<line x1="20.25" y1="0.5" x2="21.25" y2="0.5" stroke="black"/>
<line x1="22.25" y1="0.5" x2="23.25" y2="0.5" stroke="black"/>
<line x1="24.25" y1="0.5" x2="25.25" y2="0.5" stroke="black"/>
<line x1="26.25" y1="0.5" x2="27.25" y2="0.5" stroke="black"/>
<line x1="28.25" y1="0.5" x2="29.25" y2="0.5" stroke="black"/>
<line x1="30.25" y1="0.5" x2="31.25" y2="0.5" stroke="black"/>
<line x1="32.25" y1="0.5" x2="33.25" y2="0.5" stroke="black"/>
<line x1="34.25" y1="0.5" x2="35.25" y2="0.5" stroke="black"/>
<line x1="36.25" y1="0.5" x2="37.25" y2="0.5" stroke="black"/>
<line x1="38.25" y1="0.5" x2="39.25" y2="0.5" stroke="black"/>
<line x1="40.25" y1="0.5" x2="41.25" y2="0.5" stroke="black"/>
<line x1="42.25" y1="0.5" x2="43.25" y2="0.5" stroke="black"/>
<line x1="44.25" y1="0.5" x2="45.25" y2="0.5" stroke="black"/>
</g>
</svg>
